<?xml version="1.0" standalone="no"?>
<!DOCTYPE svg PUBLIC "-//W3C//DTD SVG 20010904//EN"
 "http://www.w3.org/TR/2001/REC-SVG-20010904/DTD/svg10.dtd">
<svg version="1.0" xmlns="http://www.w3.org/2000/svg"
 width="753.000000pt" height="318.000000pt" viewBox="0 0 753.000000 318.000000"
 preserveAspectRatio="xMidYMid meet">

<g transform="translate(0.000000,318.000000) scale(0.100000,-0.100000)"
fill="#000000" stroke="none">
<path d="M5657 2889 c-18 -11 -40 -55 -63 -129 -17 -56 -70 -271 -80 -325 -9
-49 -55 -106 -154 -189 -100 -83 -146 -113 -270 -174 -103 -50 -246 -99 -258
-88 -3 3 2 75 11 158 19 173 39 446 41 558 1 60 -2 75 -14 75 -16 0 -19 -18
-39 -245 -12 -134 -24 -229 -57 -452 -20 -135 -1 -121 -188 -138 -79 -8 -148
-7 -241 1 -205 18 -200 18 -200 -11 0 -17 8 -29 28 -38 47 -22 161 -137 210
-210 97 -145 174 -324 226 -527 24 -92 28 -100 50 -100 13 0 27 7 31 15 5 8
15 74 24 145 8 72 24 189 35 260 11 72 29 195 41 274 11 80 22 145 23 146 1 1
20 6 42 13 237 67 400 147 552 269 23 18 44 30 47 25 3 -5 1 -26 -5 -48 -76
-319 -98 -401 -160 -609 -53 -180 -54 -182 -39 -200 21 -25 44 -17 90 30 103
105 262 192 400 220 177 36 317 0 706 -180 169 -79 368 -135 476 -135 46 0
207 35 253 54 97 42 130 62 133 83 5 33 -26 36 -103 7 -98 -35 -221 -64 -278
-64 -45 0 -77 6 -187 32 -49 12 -233 83 -375 145 -179 79 -340 127 -460 138
-137 14 -323 -34 -452 -116 -36 -22 -67 -38 -70 -35 -3 2 8 47 25 98 59 185
91 319 147 623 15 80 22 96 64 150 84 107 151 273 151 372 0 96 -55 156 -113
122z m35 -127 c-5 -65 -46 -187 -61 -178 -10 7 0 56 31 159 22 72 34 80 30 19z
m-956 -886 c3 -7 -8 -85 -25 -172 -16 -88 -37 -208 -47 -269 -15 -99 -34 -160
-34 -110 0 30 -59 179 -107 270 -44 82 -109 177 -157 229 -25 27 -46 50 -46
51 0 1 64 -1 143 -3 78 -2 167 1 197 6 30 5 59 10 63 11 4 0 10 -5 13 -13z"/>
<path d="M1085 2044 c-129 -13 -289 -38 -350 -55 -100 -28 -223 -68 -243 -78
-9 -5 -44 -22 -76 -38 -74 -35 -124 -79 -108 -95 8 -8 21 -5 49 14 21 14 49
32 63 40 34 20 255 95 306 103 l41 6 -19 -103 c-26 -147 -56 -386 -64 -508 -7
-118 -11 -127 -94 -215 -107 -112 -231 -276 -237 -311 -4 -25 -1 -35 11 -40
32 -12 62 6 114 72 92 116 167 203 176 203 4 1 5 -34 2 -76 -14 -162 -58 -531
-72 -608 -8 -44 -17 -94 -20 -112 -5 -25 -2 -33 14 -42 11 -6 27 -8 35 -5 21
8 38 65 61 209 29 177 36 236 46 402 5 92 12 210 16 262 l7 93 196 197 c108
109 237 230 286 271 124 102 258 243 274 287 12 32 11 38 -6 62 -29 38 -115
61 -252 65 -64 2 -134 2 -156 0z m318 -83 c20 -7 37 -18 37 -26 0 -22 -130
-148 -295 -285 -82 -69 -205 -179 -273 -244 -67 -66 -124 -117 -127 -115 -7 8
14 276 37 467 25 210 17 197 130 212 97 12 443 5 491 -9z"/>
<path d="M3777 1772 c-30 -32 -34 -65 -12 -109 20 -41 61 -56 135 -51 67 5 89
22 90 72 0 52 -90 116 -166 116 -11 0 -32 -13 -47 -28z m125 -50 c54 -31 46
-60 -18 -69 -30 -4 -45 0 -66 17 -29 22 -38 65 -15 73 18 7 69 -4 99 -21z"/>
<path d="M3726 1426 c-172 -212 -351 -332 -593 -396 -124 -33 -385 -60 -588
-60 -207 -1 -395 -13 -545 -35 -95 -15 -278 -66 -355 -100 -16 -8 -64 -28
-105 -46 -201 -85 -550 -273 -550 -296 0 -7 5 -13 12 -13 6 0 104 46 217 101
113 56 240 115 281 131 41 17 80 33 85 36 10 6 94 37 195 71 149 51 434 81
780 81 253 0 566 40 665 85 17 8 41 17 55 20 30 8 167 77 223 112 50 32 191
167 248 238 24 30 47 55 50 55 4 0 10 -12 13 -27 17 -65 97 -151 174 -185 93
-42 288 -62 312 -33 18 21 3 35 -38 35 -79 0 -226 31 -276 58 -63 34 -117 111
-137 197 -9 39 -19 61 -30 63 -10 2 -45 -33 -93 -92z"/>
<path d="M5615 895 c-251 -13 -597 -43 -820 -70 -66 -8 -145 -17 -175 -20
-138 -15 -774 -107 -900 -130 -41 -8 -113 -19 -160 -25 -46 -6 -88 -14 -92
-16 -3 -2 -57 -11 -118 -19 -62 -8 -128 -19 -149 -24 -20 -5 -58 -12 -86 -15
-50 -7 -76 -12 -353 -66 -177 -35 -327 -75 -360 -96 -39 -25 -25 -55 32 -71
32 -9 52 -11 58 -5 14 14 1 32 -22 32 -21 0 -35 16 -22 24 33 20 542 105 852
141 69 9 131 17 138 20 7 2 74 12 150 20 75 9 160 20 187 25 28 5 97 14 155
19 58 6 164 17 235 25 72 9 172 21 224 27 51 6 172 17 270 25 97 7 230 18 296
23 218 18 644 32 1070 36 417 3 420 4 437 25 24 30 23 56 -5 84 -20 20 -36 23
-137 29 -251 14 -466 15 -705 2z"/>
</g>
</svg>
